<mxfile host="app.diagrams.net" modified="2023-12-12T18:23:41.800Z" agent="Mozilla/5.0 (Windows NT 10.0; Win64; x64) AppleWebKit/537.36 (KHTML, like Gecko) Chrome/120.0.0.0 Safari/537.36" version="22.1.7" etag="kC2t4ITqQQ00AWcok-w_" type="github">
  <diagram name="PÃ¡gina-1" id="Drgz-eIN9ygOGthUZ6Al">
    <mxGraphModel>
      <root>
        <mxCell id="0" />
        <mxCell id="1" parent="0" />
      </root>
    </mxGraphModel>
  </diagram>
</mxfile>
